<?xml version="1.0" encoding="utf-8"?>
<!-- Generator: Adobe Illustrator 24.0.1, SVG Export Plug-In . SVG Version: 6.00 Build 0)  -->
<svg version="1.1" id="Layer_1" xmlns="http://www.w3.org/2000/svg" xmlns:xlink="http://www.w3.org/1999/xlink" x="0px" y="0px"
	 viewBox="0 0 14.76 13.65" style="enable-background:new 0 0 14.76 13.65;" xml:space="preserve">
<style type="text/css">
	.st0{fill:#FFFFFF;}
	.st1{fill:#0B4C7B;}
</style>
<g>
	<g>
		<path class="st0" d="M0.73,13.25c0,0.22,0.18,0.4,0.4,0.4h1.7c0.22,0,0.4-0.18,0.4-0.4V6.12l-2.51-2.5V13.25z"/>
		<path class="st0" d="M4.21,7.09v6.16c0,0.22,0.18,0.4,0.4,0.4h1.7c0.22,0,0.4-0.18,0.4-0.4V9.03C6.29,8.97,5.89,8.78,5.59,8.48
			L4.21,7.09z"/>
		<path class="st0" d="M11.17,10.65v2.6c0,0.22,0.18,0.4,0.4,0.4h1.7c0.22,0,0.4-0.18,0.4-0.4v-2.48c-0.76-0.04-1.52-0.07-2.28-0.11
			C11.35,10.66,11.26,10.66,11.17,10.65z"/>
		<path class="st0" d="M10.16,7.96L9.5,7.3L8.33,8.48C8.14,8.66,7.92,8.81,7.69,8.9v4.35c0,0.22,0.18,0.4,0.4,0.4h1.7
			c0.22,0,0.4-0.18,0.4-0.4v-3.09c-0.13-0.13-0.23-0.28-0.31-0.45C9.75,9.41,9.52,8.68,10.16,7.96z"/>
		<path class="st0" d="M14.76,9.06l-0.04-0.88C14.69,7.59,14.67,7,14.64,6.41c-0.01-0.14-0.03-0.31-0.17-0.45
			c-0.04-0.04-0.08-0.07-0.13-0.1c-0.08-0.04-0.15-0.06-0.22-0.06c-0.18,0-0.29,0.11-0.37,0.2l-0.19,0.19
			c-0.15,0.16-0.31,0.31-0.46,0.46c-0.02,0.02-0.03,0.03-0.05,0.04l-2.98-2.98C9.91,3.57,9.71,3.48,9.51,3.48
			c-0.21,0-0.41,0.08-0.55,0.23L6.96,5.71L1.49,0.23C1.34,0.08,1.14,0,0.94,0C0.73,0,0.53,0.08,0.38,0.23L0.23,0.38
			c-0.31,0.31-0.31,0.8,0,1.11l6.18,6.17c0.15,0.15,0.34,0.23,0.55,0.23c0.21,0,0.41-0.08,0.56-0.23L9.5,5.67l2.28,2.28
			c-0.16,0.16-0.32,0.31-0.48,0.48l-0.23,0.23c-0.09,0.09-0.28,0.28-0.14,0.57c0.03,0.06,0.06,0.11,0.1,0.15
			c0.13,0.13,0.3,0.14,0.42,0.14c0.91,0.04,1.81,0.09,2.72,0.13c0.02,0,0.03,0,0.05,0c0.18,0,0.32-0.05,0.41-0.15
			C14.73,9.39,14.77,9.25,14.76,9.06z"/>
	</g>
</g>
</svg>
