<?xml version="1.0" encoding="utf-8"?>
<!-- Generator: Adobe Illustrator 24.0.1, SVG Export Plug-In . SVG Version: 6.00 Build 0)  -->
<svg version="1.1" id="Layer_1" xmlns="http://www.w3.org/2000/svg" xmlns:xlink="http://www.w3.org/1999/xlink" x="0px" y="0px"
	 viewBox="0 0 13.33 13.18" style="enable-background:new 0 0 13.33 13.18;" xml:space="preserve">
<style type="text/css">
	.st0{fill:#FFFFFF;}
	.st1{fill:#0B4C7B;}
</style>
<g>
	<g>
		<g>
			<path class="st0" d="M3.06,6.04H0.28C0.13,6.04,0,6.17,0,6.32v6.59c0,0.15,0.13,0.28,0.28,0.28h2.78c0.15,0,0.28-0.12,0.28-0.28
				V6.32C3.33,6.17,3.21,6.04,3.06,6.04z"/>
		</g>
	</g>
	<g>
		<g>
			<path class="st0" d="M8.05,0H5.27C5.12,0,4.99,0.12,4.99,0.27v12.63c0,0.15,0.13,0.28,0.28,0.28h2.78c0.15,0,0.28-0.12,0.28-0.28
				V0.27C8.33,0.12,8.2,0,8.05,0z"/>
		</g>
	</g>
	<g>
		<g>
			<path class="st0" d="M13.05,2.75h-2.78c-0.15,0-0.28,0.12-0.28,0.27v9.89c0,0.15,0.13,0.28,0.28,0.28h2.78
				c0.15,0,0.28-0.12,0.28-0.28V3.02C13.33,2.87,13.21,2.75,13.05,2.75z"/>
		</g>
	</g>
</g>
</svg>
