<?xml version="1.0" encoding="utf-8"?>
<!-- Generator: Adobe Illustrator 24.0.1, SVG Export Plug-In . SVG Version: 6.00 Build 0)  -->
<svg version="1.1" id="Layer_1" xmlns="http://www.w3.org/2000/svg" xmlns:xlink="http://www.w3.org/1999/xlink" x="0px" y="0px"
	 viewBox="0 0 16.43 19.33" style="enable-background:new 0 0 16.43 19.33;" xml:space="preserve">
<style type="text/css">
	.st0{fill:#FFFFFF;}
	.st1{fill:#0B4C7B;}
</style>
<g>
	<g id="notifications-none_2_">
		<path class="st0" d="M8.21,19.33c1.06,0,1.93-0.87,1.93-1.93H6.28C6.28,18.46,7.15,19.33,8.21,19.33z M14.5,13.53V8.21
			c0-2.99-2.03-5.41-4.83-6.08V1.45C9.66,0.68,8.98,0,8.21,0C7.44,0,6.76,0.68,6.76,1.45v0.68C3.96,2.8,1.93,5.22,1.93,8.21v5.32
			L0,15.46v0.97h16.43v-0.97L14.5,13.53z M12.56,14.49h-8.7V8.21c0-2.41,1.93-4.35,4.35-4.35c2.41,0,4.35,1.93,4.35,4.35V14.49z"/>
	</g>
</g>
</svg>
