<?xml version="1.0" encoding="utf-8"?>
<!-- Generator: Adobe Illustrator 24.0.1, SVG Export Plug-In . SVG Version: 6.00 Build 0)  -->
<svg version="1.1" id="Layer_1" xmlns="http://www.w3.org/2000/svg" xmlns:xlink="http://www.w3.org/1999/xlink" x="0px" y="0px"
	 viewBox="0 0 19.41 19.4" style="enable-background:new 0 0 19.41 19.4;" xml:space="preserve">
<style type="text/css">
	.st0{fill:#FFFFFF;}
	.st1{fill:#0B4C7B;}
</style>
<g>
	<path class="st0" d="M18.68,2.43L18.6,0.58C18.58,0.25,18.31,0,17.99,0h-2.02c-0.32,0-0.59,0.25-0.61,0.58l-0.08,1.85H18.68z"/>
	<path class="st0" d="M15.23,3.64l-0.68,15.13c-0.01,0.35,0.26,0.63,0.61,0.63h3.64c0.34,0,0.62-0.29,0.61-0.63L18.73,3.64H15.23z"
		/>
	<path class="st0" d="M14.29,6.64L9.44,4.88C9.31,4.83,9.18,4.85,9.07,4.92C8.96,5,8.9,5.12,8.9,5.26v2.65L0.54,4.88
		C0.42,4.83,0.28,4.85,0.17,4.92C0.07,5,0,5.12,0,5.26V19c0,0.22,0.18,0.4,0.41,0.4h13.48c-0.1-0.21-0.16-0.43-0.14-0.67L14.29,6.64
		z M3.84,16.57H2.22c-0.33,0-0.61-0.27-0.61-0.61c0-0.34,0.27-0.61,0.61-0.61h1.62c0.34,0,0.6,0.27,0.6,0.61
		C4.45,16.31,4.18,16.57,3.84,16.57z M3.84,14.15H2.22c-0.33,0-0.61-0.27-0.61-0.61c0-0.34,0.27-0.61,0.61-0.61h1.62
		c0.34,0,0.6,0.27,0.6,0.61C4.45,13.88,4.18,14.15,3.84,14.15z M3.84,11.72H2.22c-0.33,0-0.61-0.27-0.61-0.61
		c0-0.34,0.27-0.61,0.61-0.61h1.62c0.34,0,0.6,0.27,0.6,0.61C4.45,11.45,4.18,11.72,3.84,11.72z M7.88,16.57H6.27
		c-0.34,0-0.61-0.27-0.61-0.61c0-0.34,0.27-0.61,0.61-0.61h1.62c0.33,0,0.61,0.27,0.61,0.61C8.49,16.31,8.22,16.57,7.88,16.57z
		 M7.88,14.15H6.27c-0.34,0-0.61-0.27-0.61-0.61c0-0.34,0.27-0.61,0.61-0.61h1.62c0.33,0,0.61,0.27,0.61,0.61
		C8.49,13.88,8.22,14.15,7.88,14.15z M7.88,11.72H6.27c-0.34,0-0.61-0.27-0.61-0.61c0-0.34,0.27-0.61,0.61-0.61h1.62
		c0.33,0,0.61,0.27,0.61,0.61C8.49,11.45,8.22,11.72,7.88,11.72z M11.93,16.57h-1.62c-0.34,0-0.61-0.27-0.61-0.61
		c0-0.34,0.27-0.61,0.61-0.61h1.62c0.34,0,0.61,0.27,0.61,0.61C12.53,16.31,12.26,16.57,11.93,16.57z M11.93,14.15h-1.62
		c-0.34,0-0.61-0.27-0.61-0.61c0-0.34,0.27-0.61,0.61-0.61h1.62c0.34,0,0.61,0.27,0.61,0.61C12.53,13.88,12.26,14.15,11.93,14.15z
		 M11.93,11.72h-1.62c-0.34,0-0.61-0.27-0.61-0.61c0-0.34,0.27-0.61,0.61-0.61h1.62c0.34,0,0.61,0.27,0.61,0.61
		C12.53,11.45,12.26,11.72,11.93,11.72z"/>
</g>
</svg>
