<?xml version="1.0" encoding="utf-8"?>
<!-- Generator: Adobe Illustrator 24.0.1, SVG Export Plug-In . SVG Version: 6.00 Build 0)  -->
<svg version="1.1" id="Layer_1" xmlns="http://www.w3.org/2000/svg" xmlns:xlink="http://www.w3.org/1999/xlink" x="0px" y="0px"
	 viewBox="0 0 15.24 15.24" style="enable-background:new 0 0 15.24 15.24;" xml:space="preserve">
<style type="text/css">
	.st0{fill:#FFFFFF;}
	.st1{fill:#0B4C7B;}
</style>
<g>
	<path class="st0" d="M5.87,0H1.11C0.5,0,0,0.5,0,1.11v2.86c0,0.61,0.5,1.11,1.11,1.11h4.76c0.61,0,1.11-0.5,1.11-1.11V1.11
		C6.98,0.5,6.49,0,5.87,0z"/>
	<path class="st0" d="M5.87,6.35H1.11C0.5,6.35,0,6.85,0,7.46v6.67c0,0.61,0.5,1.11,1.11,1.11h4.76c0.61,0,1.11-0.5,1.11-1.11V7.46
		C6.98,6.85,6.49,6.35,5.87,6.35z"/>
	<path class="st0" d="M14.13,10.16H9.37c-0.61,0-1.11,0.5-1.11,1.11v2.86c0,0.61,0.5,1.11,1.11,1.11h4.76c0.61,0,1.11-0.5,1.11-1.11
		v-2.86C15.24,10.66,14.74,10.16,14.13,10.16z"/>
	<path class="st0" d="M14.13,0H9.37C8.75,0,8.25,0.5,8.25,1.11v6.67c0,0.61,0.5,1.11,1.11,1.11h4.76c0.61,0,1.11-0.5,1.11-1.11V1.11
		C15.24,0.5,14.74,0,14.13,0z"/>
</g>
</svg>
