<?xml version="1.0" encoding="utf-8"?>
<!-- Generator: Adobe Illustrator 24.0.1, SVG Export Plug-In . SVG Version: 6.00 Build 0)  -->
<svg version="1.1" id="Layer_1" xmlns="http://www.w3.org/2000/svg" xmlns:xlink="http://www.w3.org/1999/xlink" x="0px" y="0px"
	 viewBox="0 0 16.68 16.69" style="enable-background:new 0 0 16.68 16.69;" xml:space="preserve">
<style type="text/css">
	.st0{fill:#FFFFFF;}
	.st1{fill:#0B4C7B;}
</style>
<g>
	<path class="st0" d="M8.52,1.39H7.75C7.52,0.59,6.79,0,5.91,0S4.3,0.59,4.07,1.39H3.3c-0.29,0-0.52,0.24-0.52,0.52v1.04
		c0,0.67,0.55,1.22,1.22,1.22h3.82c0.67,0,1.22-0.55,1.22-1.22V1.91C9.04,1.63,8.8,1.39,8.52,1.39z"/>
	<path class="st0" d="M9.91,2.09H9.73v0.87c0,1.06-0.85,1.91-1.91,1.91H4c-1.06,0-1.91-0.86-1.91-1.91V2.09H1.91
		C0.86,2.09,0,2.94,0,4v8.69c0,1.06,0.86,1.91,1.91,1.91h5.13l0.15-0.86c0.07-0.39,0.25-0.74,0.53-1.02l0.56-0.56H2.61
		c-0.28,0-0.52-0.24-0.52-0.52c0-0.29,0.24-0.52,0.52-0.52h6.61c0.03,0,0.06,0,0.1,0.01h0.01l2.5-2.5V4
		C11.82,2.94,10.96,2.09,9.91,2.09L9.91,2.09z M9.21,9.91H2.61c-0.28,0-0.52-0.24-0.52-0.52c0-0.29,0.24-0.52,0.52-0.52h6.61
		c0.28,0,0.52,0.24,0.52,0.52C9.73,9.67,9.5,9.91,9.21,9.91z M9.21,7.65H2.61c-0.28,0-0.52-0.24-0.52-0.52
		c0-0.29,0.24-0.52,0.52-0.52h6.61c0.28,0,0.52,0.24,0.52,0.52C9.73,7.41,9.5,7.65,9.21,7.65z"/>
	<path class="st0" d="M8.71,16.69c-0.14,0-0.27-0.05-0.37-0.15c-0.12-0.12-0.17-0.29-0.14-0.46l0.37-2.09
		c0.02-0.11,0.07-0.2,0.14-0.28l5.16-5.16c0.63-0.64,1.26-0.46,1.6-0.12l0.86,0.86c0.48,0.47,0.48,1.25,0,1.72l-5.16,5.16
		c-0.08,0.08-0.17,0.13-0.28,0.15L8.8,16.68C8.77,16.68,8.74,16.69,8.71,16.69L8.71,16.69z M10.8,15.8L10.8,15.8L10.8,15.8z"/>
</g>
</svg>
