<?xml version="1.0" encoding="utf-8"?>
<!-- Generator: Adobe Illustrator 24.0.1, SVG Export Plug-In . SVG Version: 6.00 Build 0)  -->
<svg version="1.1" id="Layer_1" xmlns="http://www.w3.org/2000/svg" xmlns:xlink="http://www.w3.org/1999/xlink" x="0px" y="0px"
	 viewBox="0 0 11.14 11.14" style="enable-background:new 0 0 11.14 11.14;" xml:space="preserve">
<style type="text/css">
	.st0{fill:#FFFFFF;}
	.st1{fill:#0B4C7B;}
</style>
<g>
	<path class="st0" d="M6.96,6.03C6.71,6.03,6.5,6.24,6.5,6.5v1.86c0,0.26-0.21,0.46-0.46,0.46H4.64V1.86c0-0.4-0.25-0.75-0.63-0.88
		L3.87,0.93h2.16c0.26,0,0.46,0.21,0.46,0.46v1.39c0,0.26,0.21,0.46,0.46,0.46c0.26,0,0.46-0.21,0.46-0.46V1.39
		C7.43,0.62,6.8,0,6.03,0H1.04C1.03,0,1.01,0.01,0.99,0.01C0.97,0.01,0.95,0,0.93,0C0.42,0,0,0.41,0,0.93v8.35
		c0,0.4,0.25,0.75,0.63,0.88l2.79,0.93c0.1,0.03,0.19,0.04,0.29,0.04c0.51,0,0.93-0.42,0.93-0.93V9.75h1.39
		c0.77,0,1.39-0.63,1.39-1.39V6.5C7.43,6.24,7.22,6.03,6.96,6.03z"/>
	<path class="st0" d="M11,4.31L9.15,2.46c-0.13-0.13-0.33-0.17-0.51-0.1C8.47,2.43,8.35,2.6,8.35,2.78v1.39H6.5
		c-0.26,0-0.46,0.21-0.46,0.46C6.03,4.9,6.24,5.1,6.5,5.1h1.86V6.5c0,0.19,0.11,0.36,0.29,0.43C8.81,7,9.01,6.96,9.15,6.83L11,4.97
		C11.18,4.79,11.18,4.49,11,4.31z"/>
</g>
</svg>
