<?xml version="1.0" encoding="utf-8"?>
<!-- Generator: Adobe Illustrator 24.0.1, SVG Export Plug-In . SVG Version: 6.00 Build 0)  -->
<svg version="1.1" id="Layer_1" xmlns="http://www.w3.org/2000/svg" xmlns:xlink="http://www.w3.org/1999/xlink" x="0px" y="0px"
	 viewBox="0 0 20.64 14.45" style="enable-background:new 0 0 20.64 14.45;" xml:space="preserve">
<style type="text/css">
	.st0{fill:#FFFFFF;}
	.st1{fill:#0B4C7B;}
</style>
<g>
	<g>
		<path class="st0" d="M18.58,0H2.06C0.92,0,0,0.92,0,2.07l0,10.32c0,1.14,0.92,2.07,2.06,2.07h16.52c1.14,0,2.06-0.93,2.06-2.07
			V2.07C20.64,0.92,19.72,0,18.58,0z M9.29,3.09h2.07v2.07H9.29V3.09z M9.29,6.2h2.07v2.06H9.29V6.2z M6.19,3.09h2.06v2.07H6.19
			V3.09z M6.19,6.2h2.06v2.06H6.19V6.2z M5.16,8.25H3.09V6.2h2.07V8.25z M5.16,5.16H3.09V3.09h2.07V5.16z M14.45,12.38H6.19v-2.06
			h8.26V12.38z M14.45,8.25h-2.06V6.2h2.06V8.25z M14.45,5.16h-2.06V3.09h2.06V5.16z M17.54,8.25h-2.06V6.2h2.06V8.25z M17.54,5.16
			h-2.06V3.09h2.06V5.16z"/>
	</g>
</g>
</svg>
