<?xml version="1.0" encoding="utf-8"?>
<!-- Generator: Adobe Illustrator 24.0.1, SVG Export Plug-In . SVG Version: 6.00 Build 0)  -->
<svg version="1.1" id="Layer_1" xmlns="http://www.w3.org/2000/svg" xmlns:xlink="http://www.w3.org/1999/xlink" x="0px" y="0px"
	 viewBox="0 0 15.22 15.23" style="enable-background:new 0 0 15.22 15.23;" xml:space="preserve">
<style type="text/css">
	.st0{fill:#FFFFFF;}
	.st1{fill:#0B4C7B;}
</style>
<g>
	<path class="st0" d="M15.22,2.92c0,2.31-1.01,3.99-1.05,4.06c-0.09,0.14-0.23,0.22-0.39,0.22c-0.08,0-0.16-0.02-0.23-0.07
		c-0.21-0.13-0.28-0.41-0.15-0.62c0.01-0.02,0.92-1.55,0.92-3.59c0-1.17-0.76-2.02-1.81-2.02c-1,0-1.81,0.81-1.81,1.81
		c0,0.42,0.21,1.5,0.28,1.88c0.05,0.24-0.11,0.48-0.35,0.53c-0.24,0.05-0.48-0.11-0.53-0.35c-0.03-0.15-0.3-1.47-0.3-2.07
		C9.8,1.22,11.01,0,12.51,0C14.05,0,15.22,1.26,15.22,2.92z M12.58,3.63c0.18,1.5,0.44,4.43,0.14,4.73l-6.57,6.57
		c-0.4,0.4-1.06,0.4-1.46,0L0.3,10.54c-0.4-0.4-0.4-1.06,0-1.46L6.87,2.5c0.1-0.1,1.24-0.11,2.52-0.04
		C9.38,2.55,9.36,2.63,9.36,2.71c0,0.33,0.07,0.84,0.15,1.28C9.38,4.19,9.3,4.43,9.3,4.69c0,0.69,0.56,1.24,1.24,1.24
		c0.69,0,1.24-0.56,1.24-1.24c0-0.42-0.21-0.79-0.53-1.02c-0.07-0.39-0.12-0.77-0.12-0.96c0-0.04,0.01-0.08,0.01-0.12
		c0.16,0.02,0.31,0.03,0.46,0.05C12.47,2.75,12.48,2.75,12.58,3.63z M9.08,8.55c-0.1-0.28-0.27-0.62-0.64-1.01l0.5-0.5L8.39,6.48
		L7.85,7.02C7.13,6.52,6.39,6.56,5.88,7.07C5.33,7.62,5.46,8.31,5.87,9.13c0.28,0.56,0.33,0.88,0.11,1.1
		c-0.22,0.22-0.58,0.13-0.9-0.2C4.71,9.66,4.5,9.2,4.39,8.84L3.55,9.33c0.1,0.33,0.36,0.81,0.72,1.2l-0.54,0.54l0.55,0.55l0.58-0.58
		c0.77,0.54,1.55,0.47,2.05-0.03C7.44,10.49,7.49,9.92,7.04,9c-0.31-0.66-0.38-0.98-0.2-1.16C7,7.68,7.29,7.63,7.66,8
		c0.41,0.41,0.54,0.8,0.62,1.02L9.08,8.55z"/>
</g>
</svg>
