<?xml version="1.0" encoding="utf-8"?>
<!-- Generator: Adobe Illustrator 24.0.1, SVG Export Plug-In . SVG Version: 6.00 Build 0)  -->
<svg version="1.1" id="Layer_1" xmlns="http://www.w3.org/2000/svg" xmlns:xlink="http://www.w3.org/1999/xlink" x="0px" y="0px"
	 viewBox="0 0 20.62 20.62" style="enable-background:new 0 0 20.62 20.62;" xml:space="preserve">
<style type="text/css">
	.st0{fill:#FFFFFF;}
	.st1{fill:#0B4C7B;}
</style>
<g>
	<path class="st0" d="M17.6,3.02C15.66,1.07,13.06,0,10.31,0C7.56,0,4.97,1.07,3.02,3.02C1.08,4.96,0,7.55,0,10.31
		c0,2.43,0.86,4.79,2.43,6.65c0.37,0.44,0.78,0.85,1.21,1.21c1.86,1.58,4.23,2.45,6.67,2.45c2.44,0,4.81-0.87,6.66-2.45
		c0.43-0.37,0.84-0.78,1.21-1.21c1.57-1.86,2.43-4.22,2.43-6.65C20.62,7.55,19.54,4.96,17.6,3.02z M4.57,17.26
		c0.37-2.8,2.76-5,5.66-5.04h0.09h0.08c2.9,0.04,5.29,2.24,5.66,5.04c-1.61,1.33-3.64,2.07-5.74,2.07
		C8.22,19.33,6.18,18.6,4.57,17.26z M17.21,16.13c-0.02,0.02-0.04,0.04-0.06,0.06c-0.3-1.16-0.81-2.14-1.8-3.14
		c-1.32-1.33-3.07-2.08-4.95-2.11c0,0,0,0-0.01,0h-0.09h-0.09c0,0-0.01,0-0.01,0c-1.88,0.03-3.63,0.78-4.95,2.11
		C4.32,14,3.69,14.96,3.41,16.12c-1.37-1.62-2.12-3.69-2.12-5.82c0-4.97,4.04-9.02,9.02-9.02c4.97,0,9.02,4.05,9.02,9.02
		C19.34,12.44,18.58,14.5,17.21,16.13z"/>
	<path class="st0" d="M10.31,2.58c-2.13,0-3.87,1.73-3.87,3.87c0,2.13,1.73,3.86,3.87,3.86c2.13,0,3.86-1.73,3.86-3.86
		C14.17,4.31,12.44,2.58,10.31,2.58z M10.31,9.02c-1.42,0-2.58-1.16-2.58-2.58c0-1.42,1.16-2.58,2.58-2.58
		c1.42,0,2.57,1.16,2.57,2.58C12.89,7.86,11.73,9.02,10.31,9.02z"/>
</g>
</svg>
