<?xml version="1.0" encoding="utf-8"?>
<!-- Generator: Adobe Illustrator 24.0.1, SVG Export Plug-In . SVG Version: 6.00 Build 0)  -->
<svg version="1.1" id="Layer_1" xmlns="http://www.w3.org/2000/svg" xmlns:xlink="http://www.w3.org/1999/xlink" x="0px" y="0px"
	 viewBox="0 0 7.08 12.73" style="enable-background:new 0 0 7.08 12.73;" xml:space="preserve">
<style type="text/css">
	.st0{fill:#FFFFFF;}
	.st1{fill:#0B4C7B;}
</style>
<g>
	<path class="st0" d="M3.18,10.07c-0.73,0-1.31,0.61-1.31,1.33c0,0.71,0.57,1.33,1.31,1.33c0.74,0,1.33-0.62,1.33-1.33
		C4.51,10.68,3.9,10.07,3.18,10.07z"/>
	<path class="st0" d="M5.15,6.01c0.47-0.36,1.93-1.54,1.93-3.16C7.08,1.23,5.61,0,3.4,0C1.07,0,0,1.38,0,2.32
		C0,2.99,0.57,3.3,1.04,3.3c0.93,0,0.55-1.33,2.32-1.33c0.86,0,1.55,0.38,1.55,1.18c0,0.93-0.97,1.47-1.54,1.95
		c-0.5,0.43-1.16,1.14-1.16,2.63c0,0.9,0.24,1.16,0.95,1.16c0.85,0,1.02-0.38,1.02-0.71C4.18,7.27,4.2,6.75,5.15,6.01z"/>
</g>
</svg>
