<?xml version="1.0" encoding="utf-8"?>
<!-- Generator: Adobe Illustrator 24.0.1, SVG Export Plug-In . SVG Version: 6.00 Build 0)  -->
<svg version="1.1" id="Layer_1" xmlns="http://www.w3.org/2000/svg" xmlns:xlink="http://www.w3.org/1999/xlink" x="0px" y="0px"
	 viewBox="0 0 10.93 11.22" style="enable-background:new 0 0 10.93 11.22;" xml:space="preserve">
<style type="text/css">
	.st0{fill:#FFFFFF;}
	.st1{fill:#0B4C7B;}
</style>
<g>
	<g>
		<path class="st0" d="M10.74,6.84L9.71,6.03c0.01-0.13,0.02-0.27,0.02-0.43c0-0.15-0.01-0.3-0.02-0.42l1.03-0.81
			c0.19-0.15,0.24-0.42,0.12-0.64L9.79,1.88C9.67,1.67,9.42,1.56,9.17,1.66L7.95,2.15C7.72,1.98,7.47,1.83,7.22,1.72L7.03,0.43
			C7,0.19,6.79,0,6.54,0H4.39C4.14,0,3.92,0.19,3.89,0.43l-0.19,1.3C3.46,1.83,3.22,1.97,2.98,2.15L1.76,1.66
			c-0.23-0.09-0.5,0.01-0.62,0.22L0.07,3.73c-0.13,0.21-0.07,0.49,0.12,0.65l1.03,0.81C1.21,5.35,1.2,5.48,1.2,5.61
			c0,0.13,0.01,0.27,0.02,0.42L0.19,6.84C0,6.99-0.05,7.26,0.07,7.49l1.07,1.86C1.26,9.55,1.5,9.66,1.76,9.56l1.22-0.49
			C3.21,9.24,3.46,9.39,3.71,9.5l0.19,1.29c0.03,0.25,0.24,0.43,0.5,0.43h2.15c0.25,0,0.47-0.18,0.49-0.43L7.22,9.5
			c0.24-0.11,0.49-0.25,0.73-0.42l1.22,0.49C9.23,9.59,9.29,9.6,9.35,9.6c0.18,0,0.35-0.1,0.43-0.25l1.08-1.87
			C10.98,7.26,10.93,6.99,10.74,6.84z M5.46,7.48c-1.03,0-1.87-0.84-1.87-1.87c0-1.03,0.84-1.87,1.87-1.87
			c1.03,0,1.87,0.84,1.87,1.87C7.33,6.64,6.5,7.48,5.46,7.48z"/>
	</g>
</g>
</svg>
