<?xml version="1.0" encoding="utf-8"?>
<!-- Generator: Adobe Illustrator 24.0.1, SVG Export Plug-In . SVG Version: 6.00 Build 0)  -->
<svg version="1.1" id="Layer_1" xmlns="http://www.w3.org/2000/svg" xmlns:xlink="http://www.w3.org/1999/xlink" x="0px" y="0px"
	 viewBox="0 0 15.33 15.21" style="enable-background:new 0 0 15.33 15.21;" xml:space="preserve">
<style type="text/css">
	.st0{fill:#FFFFFF;}
	.st1{fill:#0B4C7B;}
</style>
<g>
	<g>
		<g>
			<path class="st0" d="M13.01,7.7L9.67,9.63L8.33,8.85l3.34-1.93L13.01,7.7z M11.34,6.35L8,8.28V4.43l3.34-1.93V6.35z M7.67,0
				l1.34,0.78L5.67,2.7L4.33,1.93L7.67,0z M3.67,6.93L5.01,7.7L1.67,9.63L0.33,8.85L3.67,6.93z M3.34,15.21L0,13.28V9.42l1.42,0.82
				c0.04,0.05,0.1,0.08,0.16,0.09l1.76,1.01V15.21z M3.67,10.78l-1.34-0.77l3.34-1.93l1.34,0.77L3.67,10.78z M7.34,13.28L4,15.21
				v-3.86l3.34-1.93V13.28z M7.34,8.28L4,6.35V2.5l1.42,0.82c0.04,0.05,0.1,0.08,0.16,0.09l1.76,1.01V8.28L7.34,8.28z M6.33,3.08
				l3.34-1.93L11,1.93L7.67,3.85L6.33,3.08z M11.34,15.21L8,13.28V9.42l1.42,0.82c0.04,0.05,0.1,0.08,0.16,0.09l1.76,1.01V15.21
				L11.34,15.21z M11.67,10.78l-1.34-0.77l3.34-1.93L15,8.85L11.67,10.78z M15.33,13.28L12,15.21v-3.86l3.34-1.93V13.28z"/>
		</g>
	</g>
</g>
</svg>
